<svg width="512" height="512" viewBox="0 0 512 512" fill="none" xmlns="http://www.w3.org/2000/svg">
    <path fill-rule="evenodd" clip-rule="evenodd" d="M0 0C170.667 0 341.333 0 512 0C512 170.667 512 341.333 512 512C341.333 512 170.667 512 0 512C0 341.333 0 170.667 0 0Z" id="bg-icon"/>
    <path fill-rule="evenodd" clip-rule="evenodd" d="M202.679 57.0625C237.681 56.8958 272.681 57.0625 307.679 57.5625C318.142 60.3556 325.975 66.5223 331.179 76.0625C359.332 189.672 386.998 303.339 414.179 417.062C414.403 446.503 399.903 459.338 370.679 455.562C360.179 451.73 353.012 444.562 349.179 434.062C324.345 331.05 299.511 228.051 274.679 125.063C268.179 124.73 261.679 124.396 255.179 124.063C248.273 124.084 241.607 124.751 235.179 126.063C210.965 226.015 186.965 326.015 163.179 426.062C158.25 448.282 144.417 458.449 121.679 456.562C100.891 448.828 92.7245 433.996 97.1792 412.062C123.985 301.838 150.651 191.505 177.179 81.0625C182.027 69.0445 190.527 61.0445 202.679 57.0625Z" id="v-icon"/>
    <style>
        #v-icon { 
            fill: #f0f0f0 
        }
        #bg-icon { 
            fill: #131413 
        }
        @media (prefers-color-scheme:dark) {
            #v-icon { 
                fill: #131413 
            }
            #bg-icon {
                fill: #f0f0f0
            }
        }
    </style>
</svg>