<svg viewBox="0 0 319 400" xmlns="http://www.w3.org/2000/svg">
    <path fill-rule="evenodd" clip-rule="evenodd" d="M106.679 0.0625141C141.681 -0.104186 176.681 0.0625141 211.679 0.562514C222.142 3.35561 229.975 9.52231 235.179 19.0625C263.332 132.672 290.998 246.339 318.179 360.062C318.403 389.503 303.903 402.338 274.679 398.562C264.179 394.73 257.012 387.562 253.179 377.062C228.345 274.05 203.511 171.051 178.679 68.0625C172.179 67.7295 165.679 67.3955 159.179 67.0625C152.273 67.0835 145.607 67.7505 139.179 69.0625C114.965 169.015 90.9652 269.015 67.1792 369.062C62.2502 391.282 48.4172 401.449 25.6792 399.562C4.89121 391.828 -3.27549 376.996 1.17921 355.062C27.9852 244.838 54.6512 134.505 81.1792 24.0625C86.0272 12.0445 94.5272 4.04451 106.679 0.0625141Z"/>
    <style>
        path{ 
            fill: #131413 
        }
        @media (prefers-color-scheme:dark) {
            path{
                fill: #f0f0f0
            }
        }
    </style>
</svg>