<svg width="68" height="14" viewBox="0 0 68 14" fill="none" xmlns="http://www.w3.org/2000/svg">
    <path d="M45.9949 3.65258C46.6586 3.65258 47.1955 4.16918 47.1955 4.80268V12.6385C47.1955 13.2734 46.6586 13.7886 45.9949 13.7886H35.8459C35.7347 13.7886 35.6256 13.7732 35.5201 13.7445C35.3677 13.704 35.2249 13.634 35.1 13.5386C34.9751 13.4432 34.8706 13.3243 34.7926 13.1887L31.5187 7.44167C31.4227 7.27436 31.3724 7.08522 31.3728 6.89288V2.50598H27.7723V12.6392C27.7723 13.2741 27.234 13.7893 26.571 13.7893H23.5145C23.3008 13.7901 23.0907 13.7351 22.9054 13.6297C22.7202 13.5244 22.5665 13.3724 22.4598 13.1894L19.1873 7.44238C19.0922 7.27471 19.042 7.0858 19.0414 6.89357V2.50598H15.4403V12.6392C15.4403 13.2741 14.9033 13.7893 14.2389 13.7893H10.2014C9.64751 13.7893 9.16371 13.4232 9.0348 12.9073L6.41892 2.50598H5.03626L2.36867 13.1194C2.31037 13.3398 2.18847 13.5388 2.01781 13.692C1.84715 13.8453 1.6351 13.9462 1.40747 13.9825C1.33961 13.994 1.2709 13.9999 1.20205 14C1.15247 14 1.10076 13.9888 1.04976 13.9825C1.00584 13.9769 0.962632 13.9776 0.920132 13.9678C0.276257 13.8194 -0.121118 13.1999 0.0332987 12.5818L2.9233 1.08708C3.05363 0.571175 3.53601 0.207175 4.09063 0.207175H7.36455C7.91988 0.207175 8.40226 0.571175 8.53117 1.08708L11.1478 11.4891H13.039V1.35588C13.039 0.722375 13.5773 0.207875 14.2389 0.207875H20.2413C20.905 0.207875 21.4427 0.722375 21.4427 1.35588V6.59888L24.2286 11.4905H25.369V1.35518C25.369 0.721675 25.908 0.207175 26.571 0.207175H32.572C33.235 0.207175 33.7726 0.721675 33.7726 1.35518V6.59817L35.5208 9.66557L36.5599 11.4898H44.795V4.80198C44.795 4.16848 45.3333 3.65258 45.9949 3.65258ZM67.1096 0.0209754C67.4518 0.0853754 67.7287 0.283475 67.898 0.545975C68.1275 0.902975 67.898 2.15598 67.898 2.15598L65.7248 12.859C65.6158 13.398 65.1213 13.7886 64.5462 13.7886H61.9282C61.3544 13.7886 60.8579 13.398 60.7495 12.859L58.6458 2.50528H58.3341L56.231 12.8583C56.1205 13.398 55.6268 13.7886 55.0524 13.7886H52.4323C51.8585 13.7886 51.3655 13.398 51.255 12.859L49.1583 2.52908L49.1534 2.50528H39.8841V9.19238C39.8841 9.82658 39.3472 10.3404 38.6828 10.3404C38.0205 10.3404 37.4829 9.82658 37.4829 9.19238V1.35588C37.4829 0.721675 38.0212 0.206475 38.6828 0.206475H50.1422C50.7167 0.206475 51.2118 0.596375 51.3202 1.13748L53.4239 11.4898H54.0628L56.1659 1.13678C56.2757 0.596375 56.7701 0.206475 57.3445 0.206475H59.636C60.2098 0.206475 60.7042 0.596375 60.814 1.13748L62.9163 11.4898H63.5573L65.7022 0.928875C65.8297 0.305875 66.4587 -0.0987246 67.1096 0.0209754Z" fill="#131413"/>
</svg>
